<svg version="1.2" baseProfile="tiny-ps" xmlns="http://www.w3.org/2000/svg" viewBox="0 0 653 197" width="653" height="197"><title>New Project</title><style>tspan { white-space:pre }</style><path fill="#e04aff" aria-label="CCompiler"  d="M45.17 117.76L45.17 130.35Q42.49 131.73 39.53 132.42Q36.58 133.11 33.32 133.11Q21.73 133.11 15.62 125.48Q9.52 117.84 9.52 103.41Q9.52 88.94 15.62 81.31Q21.73 73.67 33.32 73.67Q36.58 73.67 39.57 74.36Q42.56 75.05 45.17 76.43L45.17 89.02Q42.26 86.33 39.49 85.1Q36.77 83.84 33.85 83.84Q27.64 83.84 24.45 88.79Q21.3 93.7 21.3 103.41Q21.3 113.08 24.45 118.03Q27.64 122.94 33.85 122.94Q36.77 122.94 39.49 121.72Q42.26 120.45 45.17 117.76Z" /><path fill="#000000" aria-label="CCompiler"  d="M115.76 116.31L115.76 128.8Q111.11 131.28 106.22 132.54Q101.34 133.75 95.84 133.75Q78.52 133.75 68.93 121.5Q59.4 109.25 59.4 87.04Q59.4 64.96 68.99 52.65Q78.65 40.27 95.84 40.27Q101.34 40.27 106.22 41.54Q111.11 42.75 115.76 45.22L115.76 57.71Q111.29 54.03 106.16 52.1Q101.03 50.17 95.84 50.17Q83.96 50.17 78.04 59.34Q72.13 68.52 72.13 87.04Q72.13 105.51 78.04 114.68Q83.96 123.85 95.84 123.85Q101.15 123.85 106.22 121.92Q111.35 119.99 115.76 116.31ZM162.59 72.2Q154.14 72.2 149.79 78.78Q145.45 85.35 145.45 98.27Q145.45 111.12 149.79 117.76Q154.14 124.34 162.59 124.34Q171.09 124.34 175.44 117.76Q179.78 111.12 179.78 98.27Q179.78 85.35 175.44 78.78Q171.09 72.2 162.59 72.2ZM162.59 62.78Q176.65 62.78 184.07 71.9Q191.55 81.01 191.55 98.27Q191.55 115.59 184.13 124.7Q176.71 133.75 162.59 133.75Q148.53 133.75 141.1 124.7Q133.68 115.59 133.68 98.27Q133.68 81.01 141.1 71.9Q148.53 62.78 162.59 62.78ZM240.61 71.29Q242.66 66.95 245.8 64.9Q249 62.78 253.47 62.78Q261.61 62.78 264.93 69.12Q268.31 75.4 268.31 92.84L268.31 132L258.17 132L258.17 93.32Q258.17 79.02 256.54 75.58Q254.97 72.08 250.75 72.08Q245.92 72.08 244.11 75.82Q242.36 79.5 242.36 93.32L242.36 132L232.22 132L232.22 93.32Q232.22 78.84 230.47 75.46Q228.78 72.08 224.32 72.08Q219.91 72.08 218.16 75.82Q216.47 79.5 216.47 93.32L216.47 132L206.4 132L206.4 64.41L216.47 64.41L216.47 70.21Q218.47 66.59 221.42 64.71Q224.44 62.78 228.24 62.78Q232.83 62.78 235.85 64.9Q238.92 67.01 240.61 71.29ZM296.85 123.49L296.85 157.71L285.69 157.71L285.69 64.41L296.85 64.41L296.85 73.04Q299.63 68.03 304.22 65.44Q308.86 62.78 314.9 62.78Q327.15 62.78 334.09 72.26Q341.09 81.73 341.09 98.51Q341.09 114.98 334.09 124.4Q327.09 133.75 314.9 133.75Q308.74 133.75 304.1 131.16Q299.51 128.5 296.85 123.49ZM329.44 98.27Q329.44 85.35 325.34 78.78Q321.29 72.2 313.27 72.2Q305.18 72.2 301.02 78.84Q296.85 85.41 296.85 98.27Q296.85 111.06 301.02 117.7Q305.18 124.34 313.27 124.34Q321.29 124.34 325.34 117.76Q329.44 111.18 329.44 98.27ZM364.08 73.04L364.08 64.41L392.5 64.41L392.5 123.37L414.53 123.37L414.53 132L359.37 132L359.37 123.37L381.4 123.37L381.4 73.04L364.08 73.04ZM381.4 52.16L381.4 38.1L392.5 38.1L392.5 52.16L381.4 52.16ZM461.6 37.44L461.6 107.5Q461.6 114.98 464.31 118.78Q467.09 122.59 472.46 122.59L485.43 122.59L485.43 132L471.37 132Q461.42 132 455.93 125.6Q450.49 119.21 450.49 107.5L450.49 46.13L432.69 46.13L432.69 37.44L461.6 37.44ZM564.55 95.43L564.55 100.86L516.45 100.86L516.45 101.22Q516.45 112.27 522.18 118.3Q527.98 124.34 538.48 124.34Q543.79 124.34 549.58 122.65Q555.37 120.96 561.95 117.52L561.95 128.56Q555.62 131.16 549.7 132.48Q543.85 133.75 538.36 133.75Q522.61 133.75 513.74 124.34Q504.87 114.86 504.87 98.27Q504.87 82.09 513.56 72.44Q522.25 62.78 536.73 62.78Q549.64 62.78 557.06 71.53Q564.55 80.28 564.55 95.43ZM516.87 92.23L553.44 92.17Q553.2 82.4 548.8 77.33Q544.45 72.2 536.25 72.2Q528.22 72.2 523.03 77.51Q517.84 82.82 516.87 92.23ZM641.55 67.01L641.55 78.35Q637.99 75.58 634.31 74.31Q630.63 73.04 626.22 73.04Q615.84 73.04 610.35 79.56Q604.86 86.08 604.86 98.39L604.86 132L593.69 132L593.69 64.41L604.86 64.41L604.86 77.63Q607.63 70.45 613.37 66.65Q619.16 62.78 627.07 62.78Q631.17 62.78 634.73 63.81Q638.29 64.84 641.55 67.01Z" /></svg>